<svg xmlns="http://www.w3.org/2000/svg" xmlns:xlink="http://www.w3.org/1999/xlink" id="Layer_1" width="800" height="800" fill="#fff" version="1.1" viewBox="0 0 491.52 491.52" xml:space="preserve"><g id="SVGRepo_iconCarrier"><g><g><path d="M0,0v327.68h491.52V0H0z M471.04,307.2H20.48V20.48h450.56V307.2z"/></g></g><g><g><path d="M194.56,87.77v141.9l122.88-70.95L194.56,87.77z M215.04,123.25l61.44,35.47l-61.44,35.47V123.25z"/></g></g><g><g><path d="M183.285,430.08c-4.758-23.34-25.441-40.96-50.165-40.96s-45.407,17.62-50.165,40.96H0v20.48h82.955 c4.758,23.34,25.441,40.96,50.165,40.96s45.407-17.62,50.165-40.96H491.52v-20.48H183.285z M133.12,471.04 c-16.94,0-30.72-13.78-30.72-30.72s13.78-30.72,30.72-30.72s30.72,13.78,30.72,30.72S150.06,471.04,133.12,471.04z"/></g></g></g></svg>